<?xml version="1.0" encoding="UTF-8" standalone="no"?>
<!DOCTYPE svg PUBLIC "-//W3C//DTD SVG 1.1//EN"
 "http://www.w3.org/Graphics/SVG/1.1/DTD/svg11.dtd">
<!-- Generated by graphviz version 2.42.4 (0)
 -->
<!-- Title: ModelArchitecture Pages: 1 -->
<svg width="2631pt" height="1234pt"
 viewBox="0.00 0.00 2630.62 1234.00" xmlns="http://www.w3.org/2000/svg" xmlns:xlink="http://www.w3.org/1999/xlink">
<g id="graph0" class="graph" transform="scale(1 1) rotate(0) translate(4 1230)">
<title>ModelArchitecture</title>
<polygon fill="white" stroke="transparent" points="-4,4 -4,-1230 2626.62,-1230 2626.62,4 -4,4"/>
<text text-anchor="middle" x="1311.31" y="-1209.2" font-family="Helvetica,sans-Serif" font-size="16.00">USS/Nippon Financial Model &#45; Data Flow Architecture</text>
<g id="clust1" class="cluster">
<title>cluster_inputs</title>
<polygon fill="#e8f4f8" stroke="black" points="108.62,-1114 108.62,-1192 651.62,-1192 651.62,-1114 108.62,-1114"/>
<text text-anchor="middle" x="380.12" y="-1175.2" font-family="Helvetica,sans-Serif" font-size="16.00">User Inputs (Dashboard Sidebar)</text>
</g>
<g id="clust2" class="cluster">
<title>cluster_dataclasses</title>
<polygon fill="#fff3cd" stroke="black" points="93.62,-835 93.62,-1095 1405.62,-1095 1405.62,-835 93.62,-835"/>
<text text-anchor="middle" x="749.62" y="-1078.2" font-family="Helvetica,sans-Serif" font-size="16.00">Configuration Dataclasses</text>
</g>
<g id="clust3" class="cluster">
<title>cluster_price_scenario</title>
<polygon fill="#ffeeba" stroke="black" points="101.62,-983 101.62,-1061 815.62,-1061 815.62,-983 101.62,-983"/>
<text text-anchor="middle" x="458.62" y="-1044.2" font-family="Helvetica,sans-Serif" font-size="16.00">SteelPriceScenario</text>
</g>
<g id="clust4" class="cluster">
<title>cluster_volume_scenario</title>
<polygon fill="#ffeeba" stroke="black" points="823.62,-983 823.62,-1061 1397.62,-1061 1397.62,-983 823.62,-983"/>
<text text-anchor="middle" x="1110.62" y="-1044.2" font-family="Helvetica,sans-Serif" font-size="16.00">VolumeScenario</text>
</g>
<g id="clust5" class="cluster">
<title>cluster_model_scenario</title>
<polygon fill="#fff3cd" stroke="#856404" stroke-width="2" points="637.62,-843 637.62,-921 1331.62,-921 1331.62,-843 637.62,-843"/>
<text text-anchor="middle" x="984.62" y="-904.2" font-family="Helvetica,sans-Serif" font-size="16.00">ModelScenario (Container)</text>
</g>
<g id="clust6" class="cluster">
<title>cluster_base_data</title>
<polygon fill="#d4edda" stroke="black" points="1413.62,-835 1413.62,-955 2553.62,-955 2553.62,-835 1413.62,-835"/>
<text text-anchor="middle" x="1983.62" y="-938.2" font-family="Helvetica,sans-Serif" font-size="16.00">Base Data (2023 Actuals &#45; Hardcoded)</text>
</g>
<g id="clust7" class="cluster">
<title>cluster_segments</title>
<polygon fill="#c3e6cb" stroke="black" points="1827.62,-843 1827.62,-921 2401.62,-921 2401.62,-843 1827.62,-843"/>
<text text-anchor="middle" x="2114.62" y="-904.2" font-family="Helvetica,sans-Serif" font-size="16.00">SegmentVolumePrice (×4)</text>
</g>
<g id="clust8" class="cluster">
<title>cluster_projects</title>
<polygon fill="#c3e6cb" stroke="black" points="1421.62,-843 1421.62,-921 1819.62,-921 1819.62,-843 1421.62,-843"/>
<text text-anchor="middle" x="1620.62" y="-904.2" font-family="Helvetica,sans-Serif" font-size="16.00">CapitalProject (×6)</text>
</g>
<g id="clust9" class="cluster">
<title>cluster_model</title>
<polygon fill="#cce5ff" stroke="black" points="1499.62,-110 1499.62,-803 1834.62,-803 1834.62,-110 1499.62,-110"/>
<text text-anchor="middle" x="1667.12" y="-786.2" font-family="Helvetica,sans-Serif" font-size="16.00">PriceVolumeModel (Engine)</text>
</g>
<g id="clust10" class="cluster">
<title>cluster_segment_calc</title>
<polygon fill="#b8daff" stroke="black" points="1511.62,-402 1511.62,-699 1720.62,-699 1720.62,-402 1511.62,-402"/>
<text text-anchor="middle" x="1616.12" y="-682.2" font-family="Helvetica,sans-Serif" font-size="16.00">Per Segment × Per Year</text>
</g>
<g id="clust11" class="cluster">
<title>cluster_output</title>
<polygon fill="#f8d7da" stroke="black" points="1370.62,-8 1370.62,-91 1768.62,-91 1768.62,-8 1370.62,-8"/>
<text text-anchor="middle" x="1569.62" y="-74.2" font-family="Helvetica,sans-Serif" font-size="16.00">Output</text>
</g>
<!-- scenario_dropdown -->
<g id="node1" class="node">
<title>scenario_dropdown</title>
<path fill="none" stroke="black" d="M170.62,-1158C170.62,-1158 128.62,-1158 128.62,-1158 122.62,-1158 116.62,-1152 116.62,-1146 116.62,-1146 116.62,-1134 116.62,-1134 116.62,-1128 122.62,-1122 128.62,-1122 128.62,-1122 170.62,-1122 170.62,-1122 176.62,-1122 182.62,-1128 182.62,-1134 182.62,-1134 182.62,-1146 182.62,-1146 182.62,-1152 176.62,-1158 170.62,-1158"/>
<text text-anchor="middle" x="149.62" y="-1143" font-family="Helvetica,sans-Serif" font-size="10.00">Scenario</text>
<text text-anchor="middle" x="149.62" y="-1132" font-family="Helvetica,sans-Serif" font-size="10.00">Dropdown</text>
</g>
<!-- ms_wacc -->
<g id="node18" class="node">
<title>ms_wacc</title>
<polygon fill="none" stroke="black" points="731.62,-887 645.62,-887 645.62,-851 731.62,-851 731.62,-887"/>
<text text-anchor="middle" x="688.62" y="-867.1" font-family="Helvetica,sans-Serif" font-size="8.00">uss_wacc: 10.9%</text>
</g>
<!-- scenario_dropdown&#45;&gt;ms_wacc -->
<g id="edge1" class="edge">
<title>scenario_dropdown&#45;&gt;ms_wacc</title>
<path fill="none" stroke="black" d="M116.37,-1139.45C88.26,-1137.83 49.48,-1130.48 29.62,-1104 -7.98,-1053.87 -11.48,-1010.31 29.62,-963 69.31,-917.32 485.27,-884.13 635.16,-873.57"/>
<polygon fill="black" stroke="black" points="629.01,-879.02 637.62,-872.85 627.04,-872.31 629.01,-879.02"/>
</g>
<!-- price_sliders -->
<g id="node2" class="node">
<title>price_sliders</title>
<path fill="none" stroke="black" d="M445.12,-1158C445.12,-1158 396.12,-1158 396.12,-1158 390.12,-1158 384.12,-1152 384.12,-1146 384.12,-1146 384.12,-1134 384.12,-1134 384.12,-1128 390.12,-1122 396.12,-1122 396.12,-1122 445.12,-1122 445.12,-1122 451.12,-1122 457.12,-1128 457.12,-1134 457.12,-1134 457.12,-1146 457.12,-1146 457.12,-1152 451.12,-1158 445.12,-1158"/>
<text text-anchor="middle" x="420.62" y="-1143" font-family="Helvetica,sans-Serif" font-size="10.00">Price Factor</text>
<text text-anchor="middle" x="420.62" y="-1132" font-family="Helvetica,sans-Serif" font-size="10.00">Sliders</text>
</g>
<!-- ps_hrc -->
<g id="node7" class="node">
<title>ps_hrc</title>
<polygon fill="none" stroke="black" points="807.62,-1027 713.62,-1027 713.62,-991 807.62,-991 807.62,-1027"/>
<text text-anchor="middle" x="760.62" y="-1007.1" font-family="Helvetica,sans-Serif" font-size="8.00">hrc_us_factor: 0.95</text>
</g>
<!-- price_sliders&#45;&gt;ps_hrc -->
<g id="edge2" class="edge">
<title>price_sliders&#45;&gt;ps_hrc</title>
<path fill="none" stroke="black" d="M447.54,-1121.96C453.61,-1118.81 460.17,-1115.92 466.62,-1114 479.34,-1110.22 693.2,-1101.75 704.62,-1095 715.33,-1088.67 724.39,-1079.39 731.89,-1069.26"/>
<polygon fill="black" stroke="black" points="734.79,-1071.22 737.57,-1061 729.02,-1067.25 734.79,-1071.22"/>
</g>
<!-- volume_sliders -->
<g id="node3" class="node">
<title>volume_sliders</title>
<path fill="none" stroke="black" d="M549.62,-1158C549.62,-1158 487.62,-1158 487.62,-1158 481.62,-1158 475.62,-1152 475.62,-1146 475.62,-1146 475.62,-1134 475.62,-1134 475.62,-1128 481.62,-1122 487.62,-1122 487.62,-1122 549.62,-1122 549.62,-1122 555.62,-1122 561.62,-1128 561.62,-1134 561.62,-1134 561.62,-1146 561.62,-1146 561.62,-1152 555.62,-1158 549.62,-1158"/>
<text text-anchor="middle" x="518.62" y="-1143" font-family="Helvetica,sans-Serif" font-size="10.00">Volume Factor</text>
<text text-anchor="middle" x="518.62" y="-1132" font-family="Helvetica,sans-Serif" font-size="10.00">Sliders</text>
</g>
<!-- vs_fr -->
<g id="node13" class="node">
<title>vs_fr</title>
<polygon fill="none" stroke="black" points="1389.62,-1027 1281.62,-1027 1281.62,-991 1389.62,-991 1389.62,-1027"/>
<text text-anchor="middle" x="1335.62" y="-1007.1" font-family="Helvetica,sans-Serif" font-size="8.00">flat_rolled_factor: 0.98</text>
</g>
<!-- volume_sliders&#45;&gt;vs_fr -->
<g id="edge3" class="edge">
<title>volume_sliders&#45;&gt;vs_fr</title>
<path fill="none" stroke="black" d="M548.62,-1121.96C555.63,-1118.72 563.22,-1115.79 570.62,-1114 646.46,-1095.63 1203.41,-1131.03 1272.62,-1095 1284.38,-1088.88 1294.51,-1079.46 1303,-1069.08"/>
<polygon fill="black" stroke="black" points="1305.89,-1071.07 1309.18,-1061 1300.33,-1066.82 1305.89,-1071.07"/>
</g>
<!-- wacc_inputs -->
<g id="node4" class="node">
<title>wacc_inputs</title>
<path fill="none" stroke="black" d="M260.62,-1158C260.62,-1158 212.62,-1158 212.62,-1158 206.62,-1158 200.62,-1152 200.62,-1146 200.62,-1146 200.62,-1134 200.62,-1134 200.62,-1128 206.62,-1122 212.62,-1122 212.62,-1122 260.62,-1122 260.62,-1122 266.62,-1122 272.62,-1128 272.62,-1134 272.62,-1134 272.62,-1146 272.62,-1146 272.62,-1152 266.62,-1158 260.62,-1158"/>
<text text-anchor="middle" x="236.62" y="-1143" font-family="Helvetica,sans-Serif" font-size="10.00">WACC/IRP</text>
<text text-anchor="middle" x="236.62" y="-1132" font-family="Helvetica,sans-Serif" font-size="10.00">Parameters</text>
</g>
<!-- ms_irp -->
<g id="node21" class="node">
<title>ms_irp</title>
<polygon fill="none" stroke="black" points="1219.12,-887 1104.12,-887 1104.12,-851 1219.12,-851 1219.12,-887"/>
<text text-anchor="middle" x="1161.62" y="-871.6" font-family="Helvetica,sans-Serif" font-size="8.00">IRP: us_10yr, japan_10yr</text>
<text text-anchor="middle" x="1161.62" y="-862.6" font-family="Helvetica,sans-Serif" font-size="8.00">erp, credit_spread</text>
</g>
<!-- wacc_inputs&#45;&gt;ms_irp -->
<g id="edge4" class="edge">
<title>wacc_inputs&#45;&gt;ms_irp</title>
<path fill="none" stroke="black" d="M210.33,-1121.96C204.38,-1118.81 197.95,-1115.92 191.62,-1114 165.16,-1105.99 86.37,-1124.32 67.62,-1104 25.13,-1057.94 23.48,-1007.48 67.62,-963 77.67,-952.87 1081.81,-961.28 1094.62,-955 1119.53,-942.8 1137.99,-916.4 1149.16,-896.24"/>
<polygon fill="black" stroke="black" points="1152.35,-897.69 1153.91,-887.21 1146.16,-894.43 1152.35,-897.69"/>
</g>
<!-- project_checks -->
<g id="node5" class="node">
<title>project_checks</title>
<path fill="none" stroke="black" d="M354.12,-1158C354.12,-1158 303.12,-1158 303.12,-1158 297.12,-1158 291.12,-1152 291.12,-1146 291.12,-1146 291.12,-1134 291.12,-1134 291.12,-1128 297.12,-1122 303.12,-1122 303.12,-1122 354.12,-1122 354.12,-1122 360.12,-1122 366.12,-1128 366.12,-1134 366.12,-1134 366.12,-1146 366.12,-1146 366.12,-1152 360.12,-1158 354.12,-1158"/>
<text text-anchor="middle" x="328.62" y="-1143" font-family="Helvetica,sans-Serif" font-size="10.00">Project</text>
<text text-anchor="middle" x="328.62" y="-1132" font-family="Helvetica,sans-Serif" font-size="10.00">Checkboxes</text>
</g>
<!-- ms_projects -->
<g id="node22" class="node">
<title>ms_projects</title>
<polygon fill="none" stroke="black" points="1323.62,-887 1237.62,-887 1237.62,-851 1323.62,-851 1323.62,-887"/>
<text text-anchor="middle" x="1280.62" y="-871.6" font-family="Helvetica,sans-Serif" font-size="8.00">include_projects:</text>
<text text-anchor="middle" x="1280.62" y="-862.6" font-family="Helvetica,sans-Serif" font-size="8.00">[&#39;BR2 Mini Mill&#39;]</text>
</g>
<!-- project_checks&#45;&gt;ms_projects -->
<g id="edge5" class="edge">
<title>project_checks&#45;&gt;ms_projects</title>
<path fill="none" stroke="black" d="M300.8,-1121.95C294.67,-1118.85 288.08,-1115.97 281.62,-1114 242.3,-1102.01 125.16,-1125.52 97.62,-1095 64.28,-1058.04 64.42,-1020.09 97.62,-983 124.46,-953.01 237.45,-965.39 277.62,-963 290.81,-962.21 1217.13,-961.51 1228.62,-955 1250.64,-942.53 1264.48,-916.56 1272.29,-896.59"/>
<polygon fill="black" stroke="black" points="1275.62,-897.66 1275.74,-887.07 1269.04,-895.28 1275.62,-897.66"/>
</g>
<!-- exec_slider -->
<g id="node6" class="node">
<title>exec_slider</title>
<path fill="none" stroke="black" d="M631.62,-1158C631.62,-1158 591.62,-1158 591.62,-1158 585.62,-1158 579.62,-1152 579.62,-1146 579.62,-1146 579.62,-1134 579.62,-1134 579.62,-1128 585.62,-1122 591.62,-1122 591.62,-1122 631.62,-1122 631.62,-1122 637.62,-1122 643.62,-1128 643.62,-1134 643.62,-1134 643.62,-1146 643.62,-1146 643.62,-1152 637.62,-1158 631.62,-1158"/>
<text text-anchor="middle" x="611.62" y="-1143" font-family="Helvetica,sans-Serif" font-size="10.00">Execution</text>
<text text-anchor="middle" x="611.62" y="-1132" font-family="Helvetica,sans-Serif" font-size="10.00">Factor</text>
</g>
<!-- init -->
<g id="node33" class="node">
<title>init</title>
<path fill="none" stroke="black" d="M1814.12,-769C1814.12,-769 1705.12,-769 1705.12,-769 1699.12,-769 1693.12,-763 1693.12,-757 1693.12,-757 1693.12,-745 1693.12,-745 1693.12,-739 1699.12,-733 1705.12,-733 1705.12,-733 1814.12,-733 1814.12,-733 1820.12,-733 1826.12,-739 1826.12,-745 1826.12,-745 1826.12,-757 1826.12,-757 1826.12,-763 1820.12,-769 1814.12,-769"/>
<text text-anchor="middle" x="1759.62" y="-754" font-family="Helvetica,sans-Serif" font-size="10.00">__init__()</text>
<text text-anchor="middle" x="1759.62" y="-743" font-family="Helvetica,sans-Serif" font-size="10.00">Load scenario + configs</text>
</g>
<!-- exec_slider&#45;&gt;init -->
<g id="edge6" class="edge">
<title>exec_slider&#45;&gt;init</title>
<path fill="none" stroke="black" stroke-dasharray="5,2" d="M643.73,-1138.54C886.32,-1134.72 2424.97,-1104.69 2557.62,-955 2592.99,-915.08 2592.94,-874.96 2557.62,-835 2510.35,-781.52 2027.17,-760.47 1836.45,-754.2"/>
<polygon fill="black" stroke="black" points="1836.33,-750.7 1826.22,-753.87 1836.1,-757.69 1836.33,-750.7"/>
<text text-anchor="middle" x="2584.62" y="-965.8" font-family="Helvetica,sans-Serif" font-size="9.00">execution_factor</text>
</g>
<!-- calc_price -->
<g id="node35" class="node">
<title>calc_price</title>
<polygon fill="none" stroke="black" points="1706.62,-592 1532.62,-592 1532.62,-556 1706.62,-556 1706.62,-592"/>
<text text-anchor="middle" x="1619.62" y="-577" font-family="Helvetica,sans-Serif" font-size="10.00">calculate_segment_price()</text>
<text text-anchor="middle" x="1619.62" y="-566" font-family="Helvetica,sans-Serif" font-size="10.00">Benchmark × Factor × Premium</text>
</g>
<!-- ps_hrc&#45;&gt;calc_price -->
<g id="edge32" class="edge">
<title>ps_hrc&#45;&gt;calc_price</title>
<path fill="none" stroke="gray" stroke-dasharray="1,5" d="M795.52,-990.87C803.29,-987.73 811.6,-984.86 819.62,-983 875.56,-970.05 1293.34,-993.85 1335.62,-955 1408.98,-887.59 1302.69,-809.4 1366.62,-733 1397.83,-695.71 1432.44,-729.12 1470.62,-699 1499.29,-676.39 1486.8,-653.77 1513.62,-629 1528.03,-615.7 1546.32,-604.84 1563.64,-596.44"/>
<polygon fill="gray" stroke="gray" points="1565.54,-599.41 1573.13,-592.02 1562.59,-593.07 1565.54,-599.41"/>
<text text-anchor="middle" x="1394.12" y="-753.4" font-family="Helvetica,sans-Serif" font-size="7.00">factor</text>
<text text-anchor="middle" x="1394.12" y="-745.4" font-family="Helvetica,sans-Serif" font-size="7.00">annual_growth</text>
</g>
<!-- ps_crc -->
<g id="node8" class="node">
<title>ps_crc</title>
<polygon fill="none" stroke="black" points="695.12,-1027 602.12,-1027 602.12,-991 695.12,-991 695.12,-1027"/>
<text text-anchor="middle" x="648.62" y="-1007.1" font-family="Helvetica,sans-Serif" font-size="8.00">crc_us_factor: 0.95</text>
</g>
<!-- ps_coated -->
<g id="node9" class="node">
<title>ps_coated</title>
<polygon fill="none" stroke="black" points="583.62,-1027 473.62,-1027 473.62,-991 583.62,-991 583.62,-1027"/>
<text text-anchor="middle" x="528.62" y="-1007.1" font-family="Helvetica,sans-Serif" font-size="8.00">coated_us_factor: 0.95</text>
</g>
<!-- ps_eu -->
<g id="node10" class="node">
<title>ps_eu</title>
<polygon fill="none" stroke="black" points="455.12,-1027 360.12,-1027 360.12,-991 455.12,-991 455.12,-1027"/>
<text text-anchor="middle" x="407.62" y="-1007.1" font-family="Helvetica,sans-Serif" font-size="8.00">hrc_eu_factor: 0.92</text>
</g>
<!-- ps_octg -->
<g id="node11" class="node">
<title>ps_octg</title>
<polygon fill="none" stroke="black" points="341.62,-1027 255.62,-1027 255.62,-991 341.62,-991 341.62,-1027"/>
<text text-anchor="middle" x="298.62" y="-1007.1" font-family="Helvetica,sans-Serif" font-size="8.00">octg_factor: 0.95</text>
</g>
<!-- ps_growth -->
<g id="node12" class="node">
<title>ps_growth</title>
<polygon fill="none" stroke="black" points="237.12,-1027 110.12,-1027 110.12,-991 237.12,-991 237.12,-1027"/>
<text text-anchor="middle" x="173.62" y="-1007.1" font-family="Helvetica,sans-Serif" font-size="8.00">annual_price_growth: 0.5%</text>
</g>
<!-- ps_growth&#45;&gt;ms_wacc -->
<g id="edge7" class="edge">
<title>ps_growth&#45;&gt;ms_wacc</title>
<path fill="none" stroke="black" stroke-dasharray="5,2" d="M246.62,-983C385.73,-941.47 552.24,-901.48 635.59,-882.12"/>
<polygon fill="black" stroke="black" points="630.95,-889.09 637.62,-880.86 627.27,-883.14 630.95,-889.09"/>
<text text-anchor="middle" x="338.12" y="-965.8" font-family="Helvetica,sans-Serif" font-size="9.00">price_scenario</text>
</g>
<!-- vs_mm -->
<g id="node14" class="node">
<title>vs_mm</title>
<polygon fill="none" stroke="black" points="1263.62,-1027 1165.62,-1027 1165.62,-991 1263.62,-991 1263.62,-1027"/>
<text text-anchor="middle" x="1214.62" y="-1007.1" font-family="Helvetica,sans-Serif" font-size="8.00">mini_mill_factor: 1.0</text>
</g>
<!-- calc_vol -->
<g id="node34" class="node">
<title>calc_vol</title>
<polygon fill="none" stroke="black" points="1709.12,-665 1522.12,-665 1522.12,-629 1709.12,-629 1709.12,-665"/>
<text text-anchor="middle" x="1615.62" y="-650" font-family="Helvetica,sans-Serif" font-size="10.00">calculate_segment_volume()</text>
<text text-anchor="middle" x="1615.62" y="-639" font-family="Helvetica,sans-Serif" font-size="10.00">Base × Factor × Growth + Projects</text>
</g>
<!-- vs_mm&#45;&gt;calc_vol -->
<g id="edge29" class="edge">
<title>vs_mm&#45;&gt;calc_vol</title>
<path fill="none" stroke="gray" stroke-dasharray="1,5" d="M1249.61,-990.93C1257.06,-987.86 1264.99,-985.01 1272.62,-983 1292.72,-977.72 1349.4,-985.99 1365.62,-973 1424.97,-925.47 1379.28,-874.82 1420.62,-811 1460.91,-748.81 1532.25,-698.07 1576.57,-670.52"/>
<polygon fill="gray" stroke="gray" points="1578.62,-673.37 1585.33,-665.16 1574.97,-667.4 1578.62,-673.37"/>
<text text-anchor="middle" x="1441.12" y="-821.4" font-family="Helvetica,sans-Serif" font-size="7.00">factor</text>
<text text-anchor="middle" x="1441.12" y="-813.4" font-family="Helvetica,sans-Serif" font-size="7.00">growth_adj</text>
</g>
<!-- vs_usse -->
<g id="node15" class="node">
<title>vs_usse</title>
<polygon fill="none" stroke="black" points="1147.12,-1027 1060.12,-1027 1060.12,-991 1147.12,-991 1147.12,-1027"/>
<text text-anchor="middle" x="1103.62" y="-1007.1" font-family="Helvetica,sans-Serif" font-size="8.00">usse_factor: 0.98</text>
</g>
<!-- vs_tub -->
<g id="node16" class="node">
<title>vs_tub</title>
<polygon fill="none" stroke="black" points="1041.62,-1027 949.62,-1027 949.62,-991 1041.62,-991 1041.62,-1027"/>
<text text-anchor="middle" x="995.62" y="-1007.1" font-family="Helvetica,sans-Serif" font-size="8.00">tubular_factor: 1.0</text>
</g>
<!-- vs_growth -->
<g id="node17" class="node">
<title>vs_growth</title>
<polygon fill="none" stroke="black" points="931.62,-1027 831.62,-1027 831.62,-991 931.62,-991 931.62,-1027"/>
<text text-anchor="middle" x="881.62" y="-1007.1" font-family="Helvetica,sans-Serif" font-size="8.00">growth_adjustments</text>
</g>
<!-- vs_growth&#45;&gt;ms_wacc -->
<g id="edge8" class="edge">
<title>vs_growth&#45;&gt;ms_wacc</title>
<path fill="none" stroke="black" stroke-dasharray="5,2" d="M823.62,-984.53C822.28,-984.02 820.94,-983.5 819.62,-983 785.2,-969.89 770.29,-978.13 741.62,-955 732.8,-947.88 725.03,-938.87 718.35,-929.4"/>
<polygon fill="black" stroke="black" points="721.22,-927.39 712.77,-921 715.39,-931.26 721.22,-927.39"/>
<text text-anchor="middle" x="815.62" y="-965.8" font-family="Helvetica,sans-Serif" font-size="9.00">volume_scenario</text>
</g>
<!-- calc_dcf -->
<g id="node41" class="node">
<title>calc_dcf</title>
<polygon fill="none" stroke="black" points="1653.62,-227 1511.62,-227 1511.62,-191 1653.62,-191 1653.62,-227"/>
<text text-anchor="middle" x="1582.62" y="-212" font-family="Helvetica,sans-Serif" font-size="10.00">calculate_dcf()</text>
<text text-anchor="middle" x="1582.62" y="-201" font-family="Helvetica,sans-Serif" font-size="10.00">PV(FCF) + Terminal Value</text>
</g>
<!-- ms_wacc&#45;&gt;calc_dcf -->
<g id="edge37" class="edge">
<title>ms_wacc&#45;&gt;calc_dcf</title>
<path fill="none" stroke="gray" stroke-dasharray="1,5" d="M694.67,-850.95C702.07,-828.55 713.62,-787.85 713.62,-752 713.62,-752 713.62,-752 713.62,-281 713.62,-241.7 1285.66,-219.43 1501.5,-212.43"/>
<polygon fill="gray" stroke="gray" points="1501.63,-215.93 1511.51,-212.11 1501.4,-208.93 1501.63,-215.93"/>
</g>
<!-- ms_term -->
<g id="node19" class="node">
<title>ms_term</title>
<polygon fill="none" stroke="black" points="851.12,-887 750.12,-887 750.12,-851 851.12,-851 851.12,-887"/>
<text text-anchor="middle" x="800.62" y="-867.1" font-family="Helvetica,sans-Serif" font-size="8.00">terminal_growth: 1%</text>
</g>
<!-- ms_term&#45;&gt;calc_dcf -->
<g id="edge38" class="edge">
<title>ms_term&#45;&gt;calc_dcf</title>
<path fill="none" stroke="gray" stroke-dasharray="1,5" d="M832.16,-850.93C875.35,-826.47 947.62,-781.18 947.62,-752 947.62,-752 947.62,-752 947.62,-281 947.62,-225.93 1329.67,-213.58 1501.08,-210.8"/>
<polygon fill="gray" stroke="gray" points="1501.38,-214.3 1511.32,-210.64 1501.27,-207.3 1501.38,-214.3"/>
</g>
<!-- ms_exit -->
<g id="node20" class="node">
<title>ms_exit</title>
<polygon fill="none" stroke="black" points="959.62,-887 869.62,-887 869.62,-851 959.62,-851 959.62,-887"/>
<text text-anchor="middle" x="914.62" y="-867.1" font-family="Helvetica,sans-Serif" font-size="8.00">exit_multiple: 4.5x</text>
</g>
<!-- ms_exit&#45;&gt;calc_dcf -->
<g id="edge39" class="edge">
<title>ms_exit&#45;&gt;calc_dcf</title>
<path fill="none" stroke="gray" stroke-dasharray="1,5" d="M942.15,-850.77C990.04,-820.57 1083.62,-760.47 1083.62,-752 1083.62,-752 1083.62,-752 1083.62,-281 1083.62,-239.36 1359.54,-220.39 1501.03,-213.4"/>
<polygon fill="gray" stroke="gray" points="1501.57,-216.87 1511.39,-212.89 1501.23,-209.88 1501.57,-216.87"/>
</g>
<!-- calc_irp -->
<g id="node39" class="node">
<title>calc_irp</title>
<polygon fill="none" stroke="black" points="1806.12,-300 1683.12,-300 1683.12,-264 1806.12,-264 1806.12,-300"/>
<text text-anchor="middle" x="1744.62" y="-285" font-family="Helvetica,sans-Serif" font-size="10.00">calculate_irp_wacc()</text>
<text text-anchor="middle" x="1744.62" y="-274" font-family="Helvetica,sans-Serif" font-size="10.00">JPY → USD conversion</text>
</g>
<!-- ms_irp&#45;&gt;calc_irp -->
<g id="edge35" class="edge">
<title>ms_irp&#45;&gt;calc_irp</title>
<path fill="none" stroke="gray" stroke-dasharray="1,5" d="M1180.92,-850.79C1202.24,-829.78 1233.62,-792.06 1233.62,-752 1233.62,-752 1233.62,-752 1233.62,-354 1233.62,-306.95 1590.13,-308.56 1672.74,-299.79"/>
<polygon fill="gray" stroke="gray" points="1673.43,-303.23 1682.87,-298.41 1672.49,-296.29 1673.43,-303.23"/>
</g>
<!-- ms_projects&#45;&gt;init -->
<g id="edge9" class="edge">
<title>ms_projects&#45;&gt;init</title>
<path fill="none" stroke="black" d="M1331.62,-854.37C1357.28,-847.86 1388.95,-840.34 1417.62,-835 1497.4,-820.14 1518.02,-820.37 1598.62,-811 1634.12,-806.87 1644.83,-814.61 1678.62,-803 1697.15,-796.64 1715.78,-785.32 1730.5,-774.97"/>
<polygon fill="black" stroke="black" points="1732.65,-777.73 1738.69,-769.02 1728.54,-772.07 1732.65,-777.73"/>
<text text-anchor="middle" x="1617.62" y="-816.8" font-family="Helvetica,sans-Serif" font-size="9.00">scenario</text>
</g>
<!-- ms_financing -->
<g id="node23" class="node">
<title>ms_financing</title>
<polygon fill="none" stroke="black" points="1085.62,-887 977.62,-887 977.62,-851 1085.62,-851 1085.62,-887"/>
<text text-anchor="middle" x="1031.62" y="-867.1" font-family="Helvetica,sans-Serif" font-size="8.00">FinancingAssumptions</text>
</g>
<!-- calc_fin -->
<g id="node40" class="node">
<title>calc_fin</title>
<polygon fill="none" stroke="black" points="1665.12,-300 1508.12,-300 1508.12,-264 1665.12,-264 1665.12,-300"/>
<text text-anchor="middle" x="1586.62" y="-285" font-family="Helvetica,sans-Serif" font-size="10.00">calculate_financing_impact()</text>
<text text-anchor="middle" x="1586.62" y="-274" font-family="Helvetica,sans-Serif" font-size="10.00">Debt + equity dilution</text>
</g>
<!-- ms_financing&#45;&gt;calc_fin -->
<g id="edge36" class="edge">
<title>ms_financing&#45;&gt;calc_fin</title>
<path fill="none" stroke="gray" stroke-dasharray="1,5" d="M1061.1,-850.88C1101.9,-826.14 1170.62,-780.29 1170.62,-752 1170.62,-752 1170.62,-752 1170.62,-354 1170.62,-326.98 1194.37,-327.63 1219.62,-318 1268.69,-299.29 1405.65,-290.18 1497.66,-286.06"/>
<polygon fill="gray" stroke="gray" points="1497.97,-289.55 1507.81,-285.62 1497.67,-282.55 1497.97,-289.55"/>
</g>
<!-- seg_fr -->
<g id="node24" class="node">
<title>seg_fr</title>
<polygon fill="none" stroke="black" points="2393.62,-887 2267.62,-887 2267.62,-851 2393.62,-851 2393.62,-887"/>
<text text-anchor="middle" x="2330.62" y="-876.1" font-family="Helvetica,sans-Serif" font-size="8.00">Flat&#45;Rolled</text>
<text text-anchor="middle" x="2330.62" y="-867.1" font-family="Helvetica,sans-Serif" font-size="8.00">8,706kt @ $1,030</text>
<text text-anchor="middle" x="2330.62" y="-858.1" font-family="Helvetica,sans-Serif" font-size="8.00">12% margin, 51% premium</text>
</g>
<!-- seg_mm -->
<g id="node25" class="node">
<title>seg_mm</title>
<polygon fill="none" stroke="black" points="1961.62,-887 1835.62,-887 1835.62,-851 1961.62,-851 1961.62,-887"/>
<text text-anchor="middle" x="1898.62" y="-876.1" font-family="Helvetica,sans-Serif" font-size="8.00">Mini Mill</text>
<text text-anchor="middle" x="1898.62" y="-867.1" font-family="Helvetica,sans-Serif" font-size="8.00">2,424kt @ $875</text>
<text text-anchor="middle" x="1898.62" y="-858.1" font-family="Helvetica,sans-Serif" font-size="8.00">20% margin, 29% premium</text>
</g>
<!-- seg_mm&#45;&gt;calc_vol -->
<g id="edge28" class="edge">
<title>seg_mm&#45;&gt;calc_vol</title>
<path fill="none" stroke="gray" stroke-dasharray="1,5" d="M1864.97,-850.96C1852.28,-845.14 1837.55,-839.07 1823.62,-835 1757.14,-815.55 1738.11,-821.41 1669.62,-811 1657.63,-809.18 1623.55,-812.18 1615.62,-803 1585.19,-767.73 1595.91,-709.3 1606.05,-675.14"/>
<polygon fill="gray" stroke="gray" points="1609.46,-675.97 1609.13,-665.38 1602.78,-673.86 1609.46,-675.97"/>
<text text-anchor="middle" x="1645.12" y="-753.4" font-family="Helvetica,sans-Serif" font-size="7.00">base_shipments</text>
<text text-anchor="middle" x="1645.12" y="-745.4" font-family="Helvetica,sans-Serif" font-size="7.00">volume_growth</text>
</g>
<!-- seg_mm&#45;&gt;calc_price -->
<g id="edge33" class="edge">
<title>seg_mm&#45;&gt;calc_price</title>
<path fill="none" stroke="gray" stroke-dasharray="1,5" d="M1895.87,-850.73C1890.11,-819.2 1874.25,-751.46 1838.62,-707 1795.98,-653.79 1725.67,-616.91 1676.24,-595.92"/>
<polygon fill="gray" stroke="gray" points="1677.54,-592.67 1666.96,-592.06 1674.85,-599.13 1677.54,-592.67"/>
<text text-anchor="middle" x="1860.12" y="-709.4" font-family="Helvetica,sans-Serif" font-size="7.00">premium</text>
</g>
<!-- calc_margin -->
<g id="node36" class="node">
<title>calc_margin</title>
<polygon fill="none" stroke="black" points="1709.62,-519 1529.62,-519 1529.62,-483 1709.62,-483 1709.62,-519"/>
<text text-anchor="middle" x="1619.62" y="-504" font-family="Helvetica,sans-Serif" font-size="10.00">calculate_segment_margin()</text>
<text text-anchor="middle" x="1619.62" y="-493" font-family="Helvetica,sans-Serif" font-size="10.00">Base + (ΔPrice/100) × Sensitivity</text>
</g>
<!-- seg_mm&#45;&gt;calc_margin -->
<g id="edge34" class="edge">
<title>seg_mm&#45;&gt;calc_margin</title>
<path fill="none" stroke="gray" stroke-dasharray="1,5" d="M1867.04,-850.98C1853.98,-844.78 1838.45,-838.45 1823.62,-835 1783.11,-825.57 1677.96,-831.62 1636.62,-827 1621.81,-825.34 1516.02,-812.61 1504.62,-803 1444.09,-752 1440.86,-703.85 1466.62,-629 1483.57,-579.74 1533.7,-544.43 1572.01,-523.73"/>
<polygon fill="gray" stroke="gray" points="1573.73,-526.78 1580.97,-519.04 1570.48,-520.58 1573.73,-526.78"/>
<text text-anchor="middle" x="1490.12" y="-649.4" font-family="Helvetica,sans-Serif" font-size="7.00">base_margin</text>
<text text-anchor="middle" x="1490.12" y="-641.4" font-family="Helvetica,sans-Serif" font-size="7.00">sensitivity</text>
</g>
<!-- seg_usse -->
<g id="node26" class="node">
<title>seg_usse</title>
<polygon fill="none" stroke="black" points="2105.62,-887 1979.62,-887 1979.62,-851 2105.62,-851 2105.62,-887"/>
<text text-anchor="middle" x="2042.62" y="-876.1" font-family="Helvetica,sans-Serif" font-size="8.00">USSE</text>
<text text-anchor="middle" x="2042.62" y="-867.1" font-family="Helvetica,sans-Serif" font-size="8.00">3,899kt @ $873</text>
<text text-anchor="middle" x="2042.62" y="-858.1" font-family="Helvetica,sans-Serif" font-size="8.00">14% margin, 41% premium</text>
</g>
<!-- seg_tub -->
<g id="node27" class="node">
<title>seg_tub</title>
<polygon fill="none" stroke="black" points="2249.62,-887 2123.62,-887 2123.62,-851 2249.62,-851 2249.62,-887"/>
<text text-anchor="middle" x="2186.62" y="-876.1" font-family="Helvetica,sans-Serif" font-size="8.00">Tubular</text>
<text text-anchor="middle" x="2186.62" y="-867.1" font-family="Helvetica,sans-Serif" font-size="8.00">478kt @ $3,137</text>
<text text-anchor="middle" x="2186.62" y="-858.1" font-family="Helvetica,sans-Serif" font-size="8.00">15% margin, 12% premium</text>
</g>
<!-- seg_tub&#45;&gt;init -->
<g id="edge10" class="edge">
<title>seg_tub&#45;&gt;init</title>
<path fill="none" stroke="black" d="M2138.22,-843C2130.49,-839.84 2122.45,-837.01 2114.62,-835 2067.14,-822.82 2052.8,-836.01 2004.62,-827 1937.6,-814.47 1863,-790.06 1813.93,-772.48"/>
<polygon fill="black" stroke="black" points="1815.06,-769.17 1804.47,-769.06 1812.68,-775.75 1815.06,-769.17"/>
<text text-anchor="middle" x="2057.12" y="-816.8" font-family="Helvetica,sans-Serif" font-size="9.00">get_segment_configs()</text>
</g>
<!-- proj_br2 -->
<g id="node28" class="node">
<title>proj_br2</title>
<polygon fill="none" stroke="black" points="1505.62,-887 1429.62,-887 1429.62,-851 1505.62,-851 1505.62,-887"/>
<text text-anchor="middle" x="1467.62" y="-876.1" font-family="Helvetica,sans-Serif" font-size="8.00">BR2 Mini Mill</text>
<text text-anchor="middle" x="1467.62" y="-867.1" font-family="Helvetica,sans-Serif" font-size="8.00">$1.3B capex</text>
<text text-anchor="middle" x="1467.62" y="-858.1" font-family="Helvetica,sans-Serif" font-size="8.00">$560M EBITDA</text>
</g>
<!-- proj_br2&#45;&gt;calc_vol -->
<g id="edge30" class="edge">
<title>proj_br2&#45;&gt;calc_vol</title>
<path fill="none" stroke="gray" stroke-dasharray="1,5" d="M1482.43,-850.83C1488.02,-843.77 1494.11,-835.31 1498.62,-827 1519.81,-787.95 1509.01,-770.63 1532.62,-733 1547.16,-709.82 1568.93,-687.83 1586.52,-672.03"/>
<polygon fill="gray" stroke="gray" points="1589.07,-674.45 1594.27,-665.22 1584.45,-669.2 1589.07,-674.45"/>
<text text-anchor="middle" x="1563.12" y="-749.4" font-family="Helvetica,sans-Serif" font-size="7.00">volume_addition</text>
</g>
<!-- proj_gary -->
<g id="node29" class="node">
<title>proj_gary</title>
<polygon fill="none" stroke="black" points="1697.62,-887 1621.62,-887 1621.62,-851 1697.62,-851 1697.62,-887"/>
<text text-anchor="middle" x="1659.62" y="-876.1" font-family="Helvetica,sans-Serif" font-size="8.00">Gary Works BF</text>
<text text-anchor="middle" x="1659.62" y="-867.1" font-family="Helvetica,sans-Serif" font-size="8.00">$3.1B capex</text>
<text text-anchor="middle" x="1659.62" y="-858.1" font-family="Helvetica,sans-Serif" font-size="8.00">$402M EBITDA</text>
</g>
<!-- proj_mon -->
<g id="node30" class="node">
<title>proj_mon</title>
<polygon fill="none" stroke="black" points="1603.62,-887 1523.62,-887 1523.62,-851 1603.62,-851 1603.62,-887"/>
<text text-anchor="middle" x="1563.62" y="-876.1" font-family="Helvetica,sans-Serif" font-size="8.00">Mon Valley HSM</text>
<text text-anchor="middle" x="1563.62" y="-867.1" font-family="Helvetica,sans-Serif" font-size="8.00">$1.0B capex</text>
<text text-anchor="middle" x="1563.62" y="-858.1" font-family="Helvetica,sans-Serif" font-size="8.00">$130M EBITDA</text>
</g>
<!-- proj_other -->
<g id="node31" class="node">
<title>proj_other</title>
<polygon fill="none" stroke="black" stroke-dasharray="5,2" points="1811.62,-887 1715.62,-887 1715.62,-851 1811.62,-851 1811.62,-887"/>
<text text-anchor="middle" x="1763.62" y="-867.1" font-family="Helvetica,sans-Serif" font-size="8.00">+ 3 more projects...</text>
</g>
<!-- proj_other&#45;&gt;init -->
<g id="edge11" class="edge">
<title>proj_other&#45;&gt;init</title>
<path fill="none" stroke="black" d="M1725.1,-843C1719.09,-839.91 1712.82,-837.1 1706.62,-835 1693.46,-830.54 1653.79,-837.43 1644.62,-827 1639.93,-821.66 1640.21,-816.57 1644.62,-811 1654.26,-798.83 1664.3,-809 1678.62,-803 1696.01,-795.72 1713.9,-784.87 1728.42,-775.06"/>
<polygon fill="black" stroke="black" points="1730.77,-777.69 1737,-769.12 1726.79,-771.93 1730.77,-777.69"/>
<text text-anchor="middle" x="1693.62" y="-816.8" font-family="Helvetica,sans-Serif" font-size="9.00">get_capital_projects()</text>
</g>
<!-- benchmarks -->
<g id="node32" class="node">
<title>benchmarks</title>
<polygon fill="none" stroke="black" points="2545.12,-887 2412.12,-887 2412.12,-851 2545.12,-851 2545.12,-887"/>
<text text-anchor="middle" x="2478.62" y="-876.1" font-family="Helvetica,sans-Serif" font-size="8.00">BENCHMARK_PRICES_2023</text>
<text text-anchor="middle" x="2478.62" y="-867.1" font-family="Helvetica,sans-Serif" font-size="8.00">HRC: $680, CRC: $850</text>
<text text-anchor="middle" x="2478.62" y="-858.1" font-family="Helvetica,sans-Serif" font-size="8.00">Coated: $950, OCTG: $2,800</text>
</g>
<!-- benchmarks&#45;&gt;init -->
<g id="edge12" class="edge">
<title>benchmarks&#45;&gt;init</title>
<path fill="none" stroke="black" d="M2447.57,-850.84C2434.94,-844.7 2419.96,-838.45 2405.62,-835 2369.07,-826.21 2274.03,-830.81 2236.62,-827 2160.63,-819.25 1951.08,-784.52 1836.66,-765.16"/>
<polygon fill="black" stroke="black" points="1837.01,-761.67 1826.56,-763.45 1835.84,-768.57 1837.01,-761.67"/>
<text text-anchor="middle" x="2298.12" y="-816.8" font-family="Helvetica,sans-Serif" font-size="9.00">BENCHMARK_PRICES_2023</text>
</g>
<!-- benchmarks&#45;&gt;calc_price -->
<g id="edge31" class="edge">
<title>benchmarks&#45;&gt;calc_price</title>
<path fill="none" stroke="gray" stroke-dasharray="1,5" d="M2446.05,-850.97C2422.43,-838.97 2389.5,-822.97 2359.62,-811 2117.47,-714 2050.69,-706.55 1801.62,-629 1764.39,-617.41 1722.69,-604.99 1688.62,-595"/>
<polygon fill="gray" stroke="gray" points="1689.34,-591.56 1678.76,-592.11 1687.37,-598.28 1689.34,-591.56"/>
</g>
<!-- init&#45;&gt;calc_vol -->
<g id="edge13" class="edge">
<title>init&#45;&gt;calc_vol</title>
<path fill="none" stroke="black" d="M1735.52,-732.93C1711.53,-715.94 1674.57,-689.75 1648.02,-670.95"/>
<polygon fill="black" stroke="black" points="1649.99,-668.05 1639.8,-665.13 1645.94,-673.76 1649.99,-668.05"/>
</g>
<!-- calc_vol&#45;&gt;calc_price -->
<g id="edge14" class="edge">
<title>calc_vol&#45;&gt;calc_price</title>
<path fill="none" stroke="black" d="M1616.59,-628.81C1617.04,-620.79 1617.59,-611.05 1618.1,-602.07"/>
<polygon fill="black" stroke="black" points="1621.59,-602.21 1618.66,-592.03 1614.61,-601.82 1621.59,-602.21"/>
</g>
<!-- calc_price&#45;&gt;calc_margin -->
<g id="edge15" class="edge">
<title>calc_price&#45;&gt;calc_margin</title>
<path fill="none" stroke="black" d="M1619.62,-555.81C1619.62,-547.79 1619.62,-538.05 1619.62,-529.07"/>
<polygon fill="black" stroke="black" points="1623.12,-529.03 1619.62,-519.03 1616.12,-529.03 1623.12,-529.03"/>
</g>
<!-- build_seg -->
<g id="node37" class="node">
<title>build_seg</title>
<polygon fill="none" stroke="black" points="1710.62,-446 1560.62,-446 1560.62,-410 1710.62,-410 1710.62,-446"/>
<text text-anchor="middle" x="1635.62" y="-431" font-family="Helvetica,sans-Serif" font-size="10.00">build_segment_projection()</text>
<text text-anchor="middle" x="1635.62" y="-420" font-family="Helvetica,sans-Serif" font-size="10.00">Revenue, EBITDA, FCF</text>
</g>
<!-- calc_margin&#45;&gt;build_seg -->
<g id="edge16" class="edge">
<title>calc_margin&#45;&gt;build_seg</title>
<path fill="none" stroke="black" d="M1623.49,-482.81C1625.3,-474.79 1627.5,-465.05 1629.52,-456.07"/>
<polygon fill="black" stroke="black" points="1633,-456.55 1631.78,-446.03 1626.17,-455.01 1633,-456.55"/>
</g>
<!-- build_consol -->
<g id="node38" class="node">
<title>build_consol</title>
<polygon fill="none" stroke="black" points="1764.62,-373 1648.62,-373 1648.62,-337 1764.62,-337 1764.62,-373"/>
<text text-anchor="middle" x="1706.62" y="-358" font-family="Helvetica,sans-Serif" font-size="10.00">build_consolidated()</text>
<text text-anchor="middle" x="1706.62" y="-347" font-family="Helvetica,sans-Serif" font-size="10.00">Sum 4 segments</text>
</g>
<!-- build_seg&#45;&gt;build_consol -->
<g id="edge17" class="edge">
<title>build_seg&#45;&gt;build_consol</title>
<path fill="none" stroke="black" d="M1652.81,-409.81C1661.7,-400.92 1672.71,-389.91 1682.45,-380.17"/>
<polygon fill="black" stroke="black" points="1685,-382.57 1689.59,-373.03 1680.05,-377.63 1685,-382.57"/>
</g>
<!-- build_consol&#45;&gt;calc_irp -->
<g id="edge18" class="edge">
<title>build_consol&#45;&gt;calc_irp</title>
<path fill="none" stroke="black" d="M1715.82,-336.81C1720.3,-328.44 1725.78,-318.2 1730.76,-308.9"/>
<polygon fill="black" stroke="black" points="1733.87,-310.5 1735.51,-300.03 1727.7,-307.19 1733.87,-310.5"/>
</g>
<!-- build_consol&#45;&gt;calc_fin -->
<g id="edge19" class="edge">
<title>build_consol&#45;&gt;calc_fin</title>
<path fill="none" stroke="black" d="M1677.88,-336.99C1661.82,-327.49 1641.61,-315.54 1624.3,-305.29"/>
<polygon fill="black" stroke="black" points="1625.93,-302.19 1615.55,-300.11 1622.37,-308.22 1625.93,-302.19"/>
</g>
<!-- build_consol&#45;&gt;calc_dcf -->
<g id="edge22" class="edge">
<title>build_consol&#45;&gt;calc_dcf</title>
<path fill="none" stroke="black" d="M1764.88,-338.88C1784.46,-330.71 1804.21,-318.39 1815.62,-300 1824.06,-286.41 1825.58,-276.53 1815.62,-264 1796.72,-240.22 1723.34,-225.99 1663.91,-218.15"/>
<polygon fill="black" stroke="black" points="1664.11,-214.65 1653.75,-216.86 1663.23,-221.59 1664.11,-214.65"/>
</g>
<!-- calc_irp&#45;&gt;calc_dcf -->
<g id="edge20" class="edge">
<title>calc_irp&#45;&gt;calc_dcf</title>
<path fill="none" stroke="black" d="M1705.82,-263.99C1683.34,-254.14 1654.85,-241.66 1630.93,-231.17"/>
<polygon fill="black" stroke="black" points="1632.23,-227.92 1621.67,-227.11 1629.42,-234.33 1632.23,-227.92"/>
</g>
<!-- calc_fin&#45;&gt;calc_dcf -->
<g id="edge21" class="edge">
<title>calc_fin&#45;&gt;calc_dcf</title>
<path fill="none" stroke="black" d="M1585.65,-263.81C1585.2,-255.79 1584.65,-246.05 1584.15,-237.07"/>
<polygon fill="black" stroke="black" points="1587.64,-236.82 1583.58,-227.03 1580.65,-237.21 1587.64,-236.82"/>
</g>
<!-- run_full -->
<g id="node42" class="node">
<title>run_full</title>
<path fill="none" stroke="black" d="M1624.12,-154C1624.12,-154 1541.12,-154 1541.12,-154 1535.12,-154 1529.12,-148 1529.12,-142 1529.12,-142 1529.12,-130 1529.12,-130 1529.12,-124 1535.12,-118 1541.12,-118 1541.12,-118 1624.12,-118 1624.12,-118 1630.12,-118 1636.12,-124 1636.12,-130 1636.12,-130 1636.12,-142 1636.12,-142 1636.12,-148 1630.12,-154 1624.12,-154"/>
<text text-anchor="middle" x="1582.62" y="-139" font-family="Helvetica,sans-Serif" font-size="10.00">run_full_analysis()</text>
<text text-anchor="middle" x="1582.62" y="-128" font-family="Helvetica,sans-Serif" font-size="10.00">Orchestrate all</text>
</g>
<!-- calc_dcf&#45;&gt;run_full -->
<g id="edge23" class="edge">
<title>calc_dcf&#45;&gt;run_full</title>
<path fill="none" stroke="black" d="M1582.62,-190.81C1582.62,-182.79 1582.62,-173.05 1582.62,-164.07"/>
<polygon fill="black" stroke="black" points="1586.12,-164.03 1582.62,-154.03 1579.12,-164.03 1586.12,-164.03"/>
</g>
<!-- val_uss -->
<g id="node43" class="node">
<title>val_uss</title>
<polygon fill="none" stroke="black" points="1472.62,-57 1378.62,-57 1378.62,-16 1472.62,-16 1472.62,-57"/>
<text text-anchor="middle" x="1425.62" y="-45" font-family="Helvetica,sans-Serif" font-size="10.00">USS Standalone</text>
<text text-anchor="middle" x="1425.62" y="-34" font-family="Helvetica,sans-Serif" font-size="10.00">$50/share</text>
<text text-anchor="middle" x="1425.62" y="-23" font-family="Helvetica,sans-Serif" font-size="10.00">@ 10.9% WACC</text>
</g>
<!-- run_full&#45;&gt;val_uss -->
<g id="edge24" class="edge">
<title>run_full&#45;&gt;val_uss</title>
<path fill="none" stroke="black" d="M1534.07,-117.9C1516.82,-110.8 1497.71,-101.69 1481.62,-91 1470.31,-83.48 1459.21,-73.57 1449.91,-64.32"/>
<polygon fill="black" stroke="black" points="1452.36,-61.82 1442.87,-57.1 1447.35,-66.71 1452.36,-61.82"/>
</g>
<!-- val_nippon -->
<g id="node44" class="node">
<title>val_nippon</title>
<polygon fill="none" stroke="black" points="1576.62,-57 1490.62,-57 1490.62,-16 1576.62,-16 1576.62,-57"/>
<text text-anchor="middle" x="1533.62" y="-45" font-family="Helvetica,sans-Serif" font-size="10.00">Nippon Value</text>
<text text-anchor="middle" x="1533.62" y="-34" font-family="Helvetica,sans-Serif" font-size="10.00">$63/share</text>
<text text-anchor="middle" x="1533.62" y="-23" font-family="Helvetica,sans-Serif" font-size="10.00">@ 7.5% WACC</text>
</g>
<!-- run_full&#45;&gt;val_nippon -->
<g id="edge25" class="edge">
<title>run_full&#45;&gt;val_nippon</title>
<path fill="none" stroke="black" d="M1573.86,-117.57C1566.73,-103.37 1556.51,-83.04 1548.15,-66.41"/>
<polygon fill="black" stroke="black" points="1551.1,-64.49 1543.49,-57.13 1544.85,-67.63 1551.1,-64.49"/>
</g>
<!-- consolidated -->
<g id="node45" class="node">
<title>consolidated</title>
<polygon fill="none" stroke="black" points="1666.12,-57 1595.12,-57 1595.12,-16 1666.12,-16 1666.12,-57"/>
<text text-anchor="middle" x="1630.62" y="-45" font-family="Helvetica,sans-Serif" font-size="10.00">10&#45;Year</text>
<text text-anchor="middle" x="1630.62" y="-34" font-family="Helvetica,sans-Serif" font-size="10.00">Projection</text>
<text text-anchor="middle" x="1630.62" y="-23" font-family="Helvetica,sans-Serif" font-size="10.00">DataFrame</text>
</g>
<!-- run_full&#45;&gt;consolidated -->
<g id="edge26" class="edge">
<title>run_full&#45;&gt;consolidated</title>
<path fill="none" stroke="black" d="M1591.2,-117.57C1598.19,-103.37 1608.2,-83.04 1616.39,-66.41"/>
<polygon fill="black" stroke="black" points="1619.68,-67.64 1620.96,-57.13 1613.4,-64.55 1619.68,-67.64"/>
</g>
<!-- segment_dfs -->
<g id="node46" class="node">
<title>segment_dfs</title>
<polygon fill="none" stroke="black" points="1760.62,-57 1684.62,-57 1684.62,-16 1760.62,-16 1760.62,-57"/>
<text text-anchor="middle" x="1722.62" y="-45" font-family="Helvetica,sans-Serif" font-size="10.00">Segment</text>
<text text-anchor="middle" x="1722.62" y="-34" font-family="Helvetica,sans-Serif" font-size="10.00">DataFrames</text>
<text text-anchor="middle" x="1722.62" y="-23" font-family="Helvetica,sans-Serif" font-size="10.00">(×4)</text>
</g>
<!-- run_full&#45;&gt;segment_dfs -->
<g id="edge27" class="edge">
<title>run_full&#45;&gt;segment_dfs</title>
<path fill="none" stroke="black" d="M1628.25,-117.87C1644.05,-110.82 1661.36,-101.75 1675.62,-91 1685.3,-83.71 1694.45,-74.16 1702.07,-65.15"/>
<polygon fill="black" stroke="black" points="1705.01,-67.07 1708.6,-57.11 1699.58,-62.66 1705.01,-67.07"/>
</g>
</g>
</svg>
